<?xml version="1.0" encoding="UTF-8"?>
<svg id="Layer_1" data-name="Layer 1" xmlns="http://www.w3.org/2000/svg" xmlns:xlink="http://www.w3.org/1999/xlink" viewBox="0 0 1113.39 500.86">
  <defs>
    <style>
      .cls-1 {
        fill: url(#Gradiente_sem_nome_12);
        stroke-width: 0px;
      }
    </style>
    <linearGradient id="Gradiente_sem_nome_12" data-name="Gradiente sem nome 12" x1="0" y1="250.43" x2="1113.39" y2="250.43" gradientUnits="userSpaceOnUse">
      <stop offset="0" stop-color="#f16533"/>
      <stop offset="1" stop-color="#f69331"/>
    </linearGradient>
  </defs>
  <path class="cls-1" d="M869.73,0c-128.33,0-215.13,83.08-296.5,164.5l-84.22,85.93s0,0,0,0c-64.3,65.99-142.13,148.9-238.59,148.9-82.91,0-143.82-62.6-143.82-148.9,0-79.53,64.3-148.9,148.9-148.9,63.16,0,114.4,36.46,160.5,78.67l68.46-69.85C420.25,51.35,346.99,0,257.2,0,108.29,0,0,116.75,0,250.43c0,145.52,101.52,250.43,243.66,250.43s226.74-94.76,313.04-181.05l.03.03,67.85-69.22c-.07-.06-.13-.12-.2-.18,64.3-65.99,142.13-148.9,238.59-148.9,82.91,0,143.82,62.61,143.82,148.9,0,79.53-64.3,148.9-148.9,148.9-63.07,0-114.26-36.35-160.31-78.5l-68.46,69.85c64.17,58.93,137.37,110.17,227.08,110.17,148.9,0,257.2-116.75,257.2-250.43C1113.39,104.91,1013.56,0,869.73,0Z"/>
</svg>