<?xml version="1.0" encoding="UTF-8" standalone="no"?>
<!-- Created with Inkscape (http://www.inkscape.org/) -->

<svg
   width="122mm"
   height="55mm"
   viewBox="0 0 122 55"
   version="1.1"
   id="svg1"
   xml:space="preserve"
   inkscape:version="1.3.2 (091e20e, 2023-11-25, custom)"
   sodipodi:docname="infinite.svg"
   xmlns:inkscape="http://www.inkscape.org/namespaces/inkscape"
   xmlns:sodipodi="http://sodipodi.sourceforge.net/DTD/sodipodi-0.dtd"
   xmlns="http://www.w3.org/2000/svg"
   xmlns:svg="http://www.w3.org/2000/svg"><sodipodi:namedview
     id="namedview1"
     pagecolor="#ffffff"
     bordercolor="#000000"
     borderopacity="0.25"
     inkscape:showpageshadow="2"
     inkscape:pageopacity="0.0"
     inkscape:pagecheckerboard="0"
     inkscape:deskcolor="#d1d1d1"
     inkscape:document-units="mm"
     inkscape:zoom="0.72426347"
     inkscape:cx="425.25961"
     inkscape:cy="529.50344"
     inkscape:window-width="1920"
     inkscape:window-height="1009"
     inkscape:window-x="-8"
     inkscape:window-y="-8"
     inkscape:window-maximized="1"
     inkscape:current-layer="layer1" /><defs
     id="defs1" /><g
     inkscape:label="Camada 1"
     inkscape:groupmode="layer"
     id="layer1"><path
       style="fill:#000000;stroke:none;stroke-width:0.265;stroke-dasharray:none"
       d="m 69.299134,42.843174 7.3976,-7.48893 c 0,0 7.97652,8.12823 18.53967,8.12823 10.563146,0 14.730726,-8.14206 14.886526,-15.43451 0.1558,-7.29245 -5.33116,-16.689339 -14.795196,-16.713089 -22.12284,0 -40.73214,43.563649 -69.500928,43.563649 -16.8862627,0 -25.48062666,-14.11877 -25.48062666,-27.3072 0,-13.188429 13.13300166,-27.30718845 28.22047966,-27.30718845 15.087478,0 24.567345,11.87268945 24.567345,11.87268945 l -7.306275,7.671589 c 0,0 -7.422974,-8.584869 -17.443727,-8.584869 -10.020753,0 -16.256458,8.403669 -16.256458,16.439109 0,8.03544 5.507057,15.98247 13.973249,15.98247 24.869242,0 39.612511,-43.56364845 70.048891,-43.56364845 18.162946,0.10695 25.992556,15.47347845 25.480626,28.95110845 -0.51193,13.47763 -12.15793,25.97076 -26.393906,25.75461 -14.23598,-0.21615 -25.93727,-11.96402 -25.93727,-11.96402 z"
       id="path1"
       sodipodi:nodetypes="cczzcczzcczzcczzc" /></g></svg>
