<?xml version="1.0" encoding="UTF-8"?>
<svg id="Layer_1" data-name="Layer 1" xmlns="http://www.w3.org/2000/svg" xmlns:xlink="http://www.w3.org/1999/xlink" viewBox="0 0 1488.39 425.57">
  <defs>
    <style>
      .cls-1, .cls-2 {
        stroke-width: 0px;
      }

      .cls-2 {
        fill: url(#Gradiente_sem_nome_12);
      }
    </style>
    <linearGradient id="Gradiente_sem_nome_12" data-name="Gradiente sem nome 12" x1="589.86" y1="277.32" x2="1246.07" y2="277.32" gradientUnits="userSpaceOnUse">
      <stop offset="0" stop-color="#f16533"/>
      <stop offset="1" stop-color="#f69331"/>
    </linearGradient>
  </defs>
  <g>
    <path class="cls-1" d="M123.07,425.57c-24.61,0-47.76-4.6-69.45-13.77-21.68-9.18-39.56-21.98-53.62-38.39l45.71-46.3c19.53,21.88,45.12,32.82,76.77,32.82,25.39,0,38.09-7.03,38.09-21.1,0-7.81-3.42-13.86-10.25-18.17-6.84-4.3-15.73-7.91-26.67-10.84-10.94-2.93-22.47-6.24-34.58-9.96-12.11-3.71-23.54-8.59-34.28-14.65-10.75-6.05-19.54-14.45-26.37-25.2-6.84-10.74-10.25-24.71-10.25-41.9,0-26.96,9.76-48.54,29.3-64.76,19.53-16.21,46.1-24.32,79.7-24.32,23.44,0,44.63,4.1,63.59,12.31,18.94,8.2,34.67,20.51,47.17,36.92l-46.3,46.3c-8.59-10.55-18.26-18.17-29.01-22.86-10.75-4.69-22.37-7.03-34.87-7.03-23.44,0-35.16,6.65-35.16,19.92,0,7.03,3.42,12.51,10.25,16.41,6.83,3.91,15.62,7.33,26.37,10.26,10.74,2.93,22.17,6.25,34.28,9.96,12.1,3.72,23.53,8.79,34.28,15.24,10.74,6.45,19.53,15.24,26.37,26.37,6.83,11.14,10.25,25.3,10.25,42.49,0,28.13-9.96,50.21-29.89,66.23-19.92,16.02-47.08,24.03-81.46,24.03Z"/>
    <path class="cls-1" d="M416.96,424.99c-29.7,0-56.17-6.35-79.41-19.05-23.25-12.69-41.52-30.18-54.8-52.45-13.29-22.27-19.92-47.66-19.92-76.19s6.54-52.74,19.63-75.01c13.08-22.27,30.96-39.94,53.62-53.04,22.65-13.08,47.85-19.63,75.6-19.63s50.89,6.15,71.79,18.46c20.9,12.31,37.41,29.11,49.52,50.4,12.1,21.3,18.17,45.42,18.17,72.37,0,9.77-1.37,20.9-4.1,33.4l-206.87.59c4.69,17.58,13.67,31.26,26.96,41.02,13.28,9.77,29.68,14.65,49.23,14.65,14.07,0,27.05-2.43,38.97-7.32,11.91-4.88,22.17-12.21,30.77-21.98l45.13,45.13c-14.07,16.41-30.87,28.62-50.4,36.63-19.54,8-40.83,12.01-63.88,12.01ZM411.68,193.5c-18.37,0-33.7,4.79-46.01,14.36-12.31,9.58-20.81,22.77-25.49,39.56h137.13c-7.82-35.94-29.7-53.92-65.64-53.92Z"/>
    <path class="cls-1" d="M1285.24,425.48V1.78h76.77v423.71h-76.77Z"/>
    <path class="cls-1" d="M1445.03,87.91c-12.51,0-22.86-4.2-31.06-12.6-8.21-8.4-12.31-18.84-12.31-31.35s4.1-22.46,12.31-31.06c8.2-8.59,18.55-12.89,31.06-12.89s22.85,4.3,31.06,12.89c8.2,8.6,12.31,18.95,12.31,31.06s-4.1,22.96-12.31,31.35c-8.21,8.41-18.56,12.6-31.06,12.6ZM1406.35,425.48V130.35h77.36v295.14h-77.36Z"/>
  </g>
  <path class="cls-2" d="M1102.46,129.72c-75.64,0-126.79,48.96-174.75,96.95l-49.64,50.64s0,0,0,0c-37.9,38.89-83.77,87.76-140.62,87.76-48.87,0-84.77-36.9-84.77-87.76,0-46.87,37.9-87.76,87.76-87.76,37.23,0,67.43,21.49,94.6,46.37l40.35-41.17c-37.85-34.77-81.02-65.04-133.95-65.04-87.76,0-151.59,68.81-151.59,147.6,0,85.77,59.84,147.6,143.61,147.6s133.64-55.85,184.5-106.71l.02.02,39.99-40.8s-.08-.07-.12-.11c37.9-38.89,83.77-87.76,140.62-87.76,48.87,0,84.77,36.9,84.77,87.76,0,46.87-37.89,87.76-87.76,87.76-37.17,0-67.34-21.43-94.48-46.26l-40.35,41.17c37.82,34.73,80.96,64.93,133.84,64.93,87.76,0,151.59-68.81,151.59-147.6,0-85.77-58.84-147.6-143.61-147.6Z"/>
</svg>